<svg width="7" height="15" viewBox="0 0 7 15" fill="none" xmlns="http://www.w3.org/2000/svg">
<path d="M5.53767 14.3582C5.39582 14.3587 5.25567 14.3257 5.12752 14.2617C4.99936 14.1977 4.88645 14.1042 4.79709 13.9882L0.21117 7.98819C0.0715212 7.80925 -0.00482178 7.58481 -0.00482178 7.35319C-0.00482178 7.12156 0.0715212 6.89712 0.21117 6.71819L4.9585 0.718186C5.11966 0.513969 5.35124 0.385545 5.60231 0.361165C5.85337 0.336785 6.10335 0.418447 6.29724 0.588186C6.49114 0.757924 6.61307 1.00184 6.63622 1.26626C6.65937 1.53069 6.58183 1.79397 6.42067 1.99819L2.17656 7.35819L6.27825 12.7182C6.39436 12.865 6.46811 13.0437 6.49078 13.2333C6.51345 13.4228 6.4841 13.6152 6.40619 13.7878C6.32828 13.9603 6.20508 14.1057 6.05116 14.2068C5.89724 14.3079 5.71905 14.3604 5.53767 14.3582Z" fill="#828282"/>
</svg>
