<svg width="8" height="15" viewBox="0 0 8 15" fill="none" xmlns="http://www.w3.org/2000/svg">
<path d="M1.98241 14.3582C2.12426 14.3587 2.26441 14.3257 2.39256 14.2617C2.52072 14.1977 2.63363 14.1042 2.72299 13.9882L7.30891 7.98819C7.44856 7.80925 7.5249 7.58481 7.5249 7.35319C7.5249 7.12156 7.44856 6.89712 7.30891 6.71819L2.56158 0.718186C2.40042 0.513969 2.16884 0.385545 1.91777 0.361165C1.66671 0.336785 1.41673 0.418447 1.22284 0.588186C1.02894 0.757924 0.907007 1.00184 0.88386 1.26626C0.860712 1.53069 0.938247 1.79397 1.09941 1.99819L5.34352 7.35819L1.24183 12.7182C1.12572 12.865 1.05197 13.0437 1.0293 13.2333C1.00663 13.4228 1.03598 13.6152 1.11389 13.7878C1.1918 13.9603 1.315 14.1057 1.46892 14.2068C1.62284 14.3079 1.80103 14.3604 1.98241 14.3582Z" fill="#828282"/>
</svg>
